<svg width="52" height="82" viewBox="0 0 52 82" fill="none" xmlns="http://www.w3.org/2000/svg">
<g id="Group">
<g id="OBJECTS">
<g id="Group_2">
<g id="Group_3">
<g id="Group_4">
<path id="Vector" d="M22.3448 70.2143C22.2194 70.4624 22.0891 70.7105 21.9588 70.9537C21.2447 72.2769 20.5113 73.751 19.5318 74.899C17.9588 76.7476 16.2556 73.3569 15.5318 72.2283C15.0155 71.4256 14.5137 70.6132 14.0215 69.7959C16.7574 68.7014 19.913 68.0592 22.3448 70.2143Z" fill="#F5DD3F"/>
<path id="Vector_2" d="M31.1603 4.79817C31.2278 5.68842 30.8611 6.53488 30.5813 7.35702C30.3304 8.09646 30.1084 8.84563 29.9202 9.60453C29.5776 10.9958 29.3509 12.4066 29.2158 13.832C28.0915 13.1801 26.7357 12.8396 25.539 12.5769C22.7646 11.9688 19.913 11.711 17.071 11.7888C15.7248 11.8277 14.3786 11.9445 13.0421 12.1391C11.7055 12.3288 10.2242 12.4991 8.98416 13.0682C8.87318 13.1169 8.77186 13.1752 8.67535 13.2288C8.77668 10.3586 9.01794 7.56134 9.81408 4.78358C10.2194 3.37767 10.7308 2.09338 12.0722 1.3588C13.1579 0.765305 14.422 0.58531 15.6331 0.488015C18.5909 0.254508 21.568 0.444233 24.4968 0.886924C26.8177 1.24205 30.9335 1.69447 31.1603 4.79331V4.79817Z" fill="#D68321"/>
<path id="Vector_3" d="M30.8466 16.2352C31.2664 17.3394 31.1458 18.687 30.2097 19.4605C30.1277 19.3632 30.0409 19.2659 29.9444 19.1735C28.2652 17.5632 25.5053 17.0816 23.3099 16.7216C20.6464 16.2838 17.9347 16.2352 15.2471 16.4589C13.9154 16.5708 12.5933 16.7508 11.2761 16.9843C10.1325 17.1886 8.81045 17.3151 7.83096 17.9962C7.78271 18.0254 7.74411 18.0643 7.70068 18.0983C7.3581 16.96 7.18922 15.6417 7.79718 14.5665C8.54507 13.2433 10.2146 13.0147 11.5656 12.7666C14.3786 12.2412 17.2544 12.0709 20.106 12.2509C22.7212 12.4163 25.5583 12.7569 28.0143 13.7444C29.1916 14.2163 30.3786 14.9995 30.8515 16.2352H30.8466Z" fill="#B5E1E2"/>
<path id="Vector_4" d="M29.8961 19.7621C30.7212 20.7204 30.9431 22.2042 30.1084 23.2015C28.9118 21.5766 26.5619 21.2069 24.6802 20.9199C21.7706 20.4772 18.8225 20.3459 15.8888 20.5258C14.4703 20.6134 13.0517 20.7691 11.6476 20.9977C10.3882 21.202 9.00826 21.3772 7.90332 22.0728C7.72961 22.1799 7.56073 22.3063 7.40633 22.4426C6.78389 21.4988 6.66809 20.2923 7.2085 19.2756C7.85989 18.04 9.19644 17.7821 10.4558 17.5389C13.1771 17.0135 15.9467 16.7119 18.7212 16.7605C21.4184 16.8043 24.1301 17.174 26.7115 17.9816C27.8647 18.3416 29.0855 18.8183 29.9009 19.7621H29.8961Z" fill="#B5E1E2"/>
<path id="Vector_5" d="M30.0746 23.9798C30.7356 25.3274 29.9974 27.2051 28.3376 27.0641C28.3279 27.0397 28.3086 27.0154 28.2845 26.996C25.7996 24.9236 21.9974 24.6414 18.8997 24.5198C15.2326 24.3787 11.3967 24.8506 7.93226 26.1009C7.89849 26.1154 7.87919 26.1398 7.86954 26.169C7.86471 26.169 7.85989 26.1592 7.85506 26.1592C6.40271 25.5317 6.54746 23.7852 7.57038 22.8172C8.52093 21.922 9.8816 21.6983 11.1168 21.4842C13.8141 21.0172 16.5595 20.8275 19.3002 20.9004C21.8768 20.9686 24.5837 21.168 27.0831 21.8539C28.2893 22.1847 29.5004 22.8026 30.0843 23.9798H30.0746Z" fill="#B5E1E2"/>
<path id="Vector_6" d="M27.4884 57.9308C26.4992 60.9324 25.2592 63.9047 23.9853 66.7895C23.5366 67.8062 23.0638 68.8132 22.5619 69.8008C20.1108 67.6846 16.5885 68.1468 13.9154 69.6159C13.6307 69.1392 13.346 68.6624 13.0662 68.1808C11.4691 65.4128 9.85266 62.5572 8.65121 59.5897C8.53541 59.2978 8.43408 59.0059 8.34723 58.714C9.3605 60.0762 10.919 61.2291 12.6416 60.5772C14.2049 59.9886 14.7598 58.3832 15.0348 56.8411C15.609 58.8016 16.8153 60.9226 19.0975 60.6891C21.3074 60.4605 22.147 58.2519 22.5233 56.2817C23.3533 58.1984 25.6934 59.0254 27.498 57.9357L27.4884 57.9308Z" fill="#FCF8D3"/>
<path id="Vector_7" d="M51.9178 80.7659C52.1542 80.941 51.8406 81.2621 51.5608 81.1161C50.1808 80.401 48.6753 79.4816 46.948 80.1772C46.2483 80.4545 45.7079 80.9507 45.0855 81.3059C43.9468 81.9577 42.7212 82.1912 41.3509 81.8167C39.995 81.4421 38.9576 80.6297 38.2097 79.7102C37.153 78.4114 36.4341 75.872 34.2146 75.6141C31.8599 75.3417 29.6645 77.2584 28.0963 78.4211C26.9769 79.2529 25.8334 80.7172 24.3762 81.194C21.7803 82.0453 20.2411 78.7227 20.2556 77.3022C20.2556 77.1952 20.4775 77.166 20.5065 77.2779C20.7815 78.2119 21.1723 79.0389 21.954 79.7929C22.9962 80.7951 24.41 80.4302 25.4088 79.574C26.7212 78.4454 28.1301 77.38 29.6452 76.4071C31.5222 75.2006 34.2966 73.9017 36.3135 75.6628C38.5282 77.5941 40.1784 83.4026 44.9166 80.547C45.8961 79.9583 46.8273 79.2773 48.1542 79.2773C49.6211 79.2724 50.919 80.041 51.9226 80.7756L51.9178 80.7659Z" fill="#471E1C"/>
<path id="Vector_8" d="M36.6995 27.3703C36.6561 27.2244 36.5017 27.1758 36.3714 27.2341C36.024 27.3995 35.7731 27.6622 35.5801 27.9687C35.5801 27.7839 35.5801 27.5941 35.5656 27.4141C35.5366 27.1028 35.4305 26.9033 35.141 26.7817C35.0541 26.7477 34.9335 26.806 34.8949 26.8839C34.7116 27.2244 34.5813 27.5844 34.5041 27.9493C34.4462 27.7595 34.3883 27.5698 34.3304 27.3849C34.2339 27.0785 34.1518 26.7769 33.8093 26.6942C33.7031 26.6698 33.5584 26.7282 33.5391 26.8498C33.4281 27.599 33.4184 28.4601 33.6983 29.1849C33.4281 29.0244 33.1241 28.8881 32.8153 28.8395C32.5692 28.8006 32.2508 28.8881 32.2266 29.1849C32.1977 29.5254 32.6175 29.7443 32.878 29.8562C33.1386 29.9681 33.4233 30.0265 33.6983 29.9681C33.7031 30.1189 33.7417 30.2697 33.8237 30.4059C33.9685 30.6589 34.258 30.8876 34.5523 30.873C33.7658 34.2637 31.2809 36.9101 27.6814 37.236C27.7875 33.9767 28.0143 30.727 28.3666 27.4822C30.2146 27.6671 31.2037 25.5461 30.5523 23.9796C30.4944 23.8386 30.4269 23.7023 30.3545 23.571C31.3726 22.5348 31.2278 20.944 30.4703 19.796C31.7055 18.789 31.7827 16.9306 31.0252 15.5734C30.673 14.9409 30.1711 14.4496 29.5921 14.0604C29.6066 14.0361 29.6163 14.0021 29.6211 13.968C29.7755 12.2751 30.0698 10.5967 30.5282 8.95732C30.919 7.56114 31.7875 6.03362 31.5608 4.54501C31.1458 1.85481 28.1301 1.08131 25.9009 0.692134C22.673 0.137554 19.3871 -0.1446 16.1205 0.0743129C13.7851 0.229985 11.112 0.677541 10.036 3.06613C9.34605 4.59365 9.01312 6.37415 8.75257 8.02329C8.46789 9.78919 8.30383 11.6086 8.41964 13.3988C6.90456 14.4837 6.79358 16.5706 7.49804 18.2733C6.33037 19.3825 6.15667 21.3867 7.18441 22.6564C6.7212 23.138 6.38827 23.7461 6.36415 24.4223C6.3352 25.3272 6.86113 26.1882 7.72 26.4558C7.72482 26.4558 7.72965 26.4558 7.7393 26.4558C7.48839 29.686 7.36294 32.9307 7.30022 36.1804C5.48116 35.9663 3.90335 34.8718 2.91903 33.3248C2.42205 32.5464 2.07464 31.6756 1.84304 30.7757C1.68381 30.153 1.62108 29.506 1.50528 28.8736C1.78514 28.8492 2.05052 28.6984 2.19044 28.4406C2.41722 28.4649 2.65365 28.4455 2.87561 28.4017C3.14099 28.3482 3.58007 28.246 3.59455 27.8957C3.6042 27.6185 3.32434 27.4531 3.08791 27.4141C2.88043 27.3801 2.65848 27.4093 2.44135 27.4676C2.66813 27.0152 2.81288 26.5336 2.86596 26.0228C2.89973 25.6872 3.03484 24.8942 2.60058 24.7677C2.34485 24.6899 2.13737 24.8796 1.97814 25.1861C1.98779 25.0693 1.98779 24.9574 1.97814 24.8553C1.95401 24.578 1.79961 24.3153 1.51976 24.2375C1.01312 24.1012 0.87802 24.5342 0.87802 24.9818C0.776693 24.7774 0.593339 24.5926 0.34726 24.6704C-0.410279 24.9088 0.270058 26.7379 0.525788 27.3849C0.381035 27.5552 0.294184 27.7741 0.303834 28.0271C0.318309 28.4649 0.718792 28.8346 1.12892 28.8346C1.14822 28.8395 1.17235 28.8492 1.19165 28.8541C1.03725 30.6151 1.85269 32.6729 2.83218 33.9913C3.90818 35.4458 5.50046 36.4528 7.29539 36.6377C7.22784 40.6122 7.25196 44.5915 7.26161 48.5514C7.26644 50.4146 7.27609 52.2778 7.30504 54.141C7.32917 55.7366 7.41602 57.3274 7.92748 58.8501C8.97935 61.983 10.7743 64.9796 12.4052 67.8352C13.2399 69.2995 14.1132 70.7395 15.0204 72.1648C15.7393 73.2935 16.4534 74.821 17.6066 75.5653C18.5523 76.1783 19.4015 75.7696 20.024 74.928C20.9842 73.634 21.7803 72.1746 22.533 70.7492C24.0819 67.8158 25.3461 64.7413 26.5378 61.6424C27.059 60.29 27.7103 58.8987 28.0819 57.4782C28.106 57.4539 28.135 57.4296 28.1591 57.4101C28.2315 57.3371 28.2122 57.2496 28.1543 57.1961C28.1784 57.0988 28.2025 56.9966 28.2218 56.8993C28.5499 55.2842 28.1977 53.5718 28.0626 51.9519C27.6573 47.2136 27.5318 42.451 27.6669 37.7031C31.2761 37.4306 34.5089 34.6042 34.755 30.9265C34.8322 30.9508 34.9094 30.9654 34.9866 30.9654C35.6187 30.9654 35.942 30.3427 35.8358 29.793C36.0626 29.5643 36.2508 29.1898 36.3762 28.9903C36.6898 28.4941 36.878 27.959 36.7091 27.3752L36.6995 27.3703ZM9.81409 4.78338C10.2194 3.37747 10.7309 2.09318 12.0722 1.3586C13.1579 0.765106 14.422 0.58511 15.6331 0.487816C18.5909 0.254308 21.568 0.444033 24.4968 0.886724C26.8177 1.24185 30.9335 1.69427 31.1603 4.79311C31.2278 5.68335 30.8611 6.52982 30.5813 7.35196C30.3304 8.0914 30.1084 8.84057 29.9202 9.59947C29.5777 10.9908 29.3509 12.4016 29.2158 13.8269C28.0915 13.175 26.7357 12.8345 25.5391 12.5718C22.7646 11.9637 19.913 11.7059 17.071 11.7837C15.7248 11.8227 14.3786 11.9394 13.0421 12.134C11.7055 12.3237 10.2242 12.494 8.98417 13.0632C8.8732 13.1118 8.77187 13.1702 8.67537 13.2237C8.77669 10.3535 9.01795 7.55628 9.81409 4.77851V4.78338ZM7.7972 14.5664C8.54509 13.2432 10.2146 13.0145 11.5656 12.7664C14.3786 12.241 17.2544 12.0708 20.106 12.2507C22.7212 12.4162 25.5584 12.7567 28.0143 13.7442C29.1917 14.2161 30.3786 14.9993 30.8515 16.235C31.2713 17.3393 31.1506 18.6868 30.2146 19.4603C30.1325 19.363 30.0457 19.2657 29.9492 19.1733C28.2701 17.563 25.5101 17.0814 23.3147 16.7214C20.6512 16.2836 17.9395 16.235 15.252 16.4587C13.9202 16.5706 12.5982 16.7506 11.2809 16.9841C10.1374 17.1885 8.81529 17.3149 7.8358 17.996C7.78755 18.0252 7.74895 18.0641 7.70552 18.0982C7.36294 16.9598 7.19406 15.6415 7.80202 14.5664H7.7972ZM7.20854 19.2754C7.85993 18.0398 9.19648 17.782 10.4558 17.5387C13.1772 17.0133 15.9468 16.7117 18.7212 16.7604C21.4184 16.8041 24.1301 17.1739 26.7116 17.9814C27.8647 18.3414 29.0855 18.8181 29.9009 19.7619C30.726 20.7203 30.948 22.204 30.1132 23.2013C28.9166 21.5764 26.5668 21.2067 24.685 20.9197C21.7755 20.477 18.8274 20.3457 15.8937 20.5257C14.4751 20.6132 13.0565 20.7689 11.6524 20.9975C10.3931 21.2019 9.01312 21.377 7.90818 22.0727C7.73447 22.1797 7.56559 22.3062 7.41119 22.4424C6.78876 21.4986 6.67295 20.2922 7.21336 19.2754H7.20854ZM7.5656 22.8121C8.51614 21.917 9.87681 21.6932 11.112 21.4792C13.8093 21.0121 16.5547 20.8224 19.2954 20.8954C21.872 20.9635 24.5789 21.1629 27.0783 21.8489C28.2845 22.1797 29.4956 22.7975 30.0795 23.9748C30.7405 25.3223 30.0023 27.2001 28.3424 27.059C28.3328 27.0347 28.3135 27.0104 28.2894 26.9909C25.8044 24.9185 22.0023 24.6364 18.9046 24.5147C15.2375 24.3737 11.4015 24.8456 7.93713 26.0958C7.90335 26.1104 7.88405 26.1347 7.8744 26.1639C7.86958 26.1639 7.86475 26.1542 7.85993 26.1542C6.40757 25.5266 6.55233 23.7802 7.57525 22.8121H7.5656ZM21.9588 70.9535C21.2447 72.2767 20.5113 73.7508 19.5318 74.8988C17.9588 76.7474 16.2556 73.3567 15.5318 72.2281C15.0155 71.4254 14.5137 70.613 14.0216 69.7957C16.7574 68.7012 19.913 68.059 22.3448 70.2141C22.2194 70.4622 22.0891 70.7103 21.9588 70.9535ZM23.9854 66.7844C23.5366 67.8012 23.0638 68.8082 22.562 69.7957C20.1108 67.6796 16.5885 68.1417 13.9154 69.6109C13.6307 69.1341 13.3461 68.6574 13.0662 68.1758C11.4691 65.4077 9.85269 62.5521 8.65124 59.5846C8.53544 59.2928 8.43411 59.0009 8.34726 58.709C9.36053 60.0711 10.919 61.2241 12.6416 60.5722C14.2049 59.9836 14.7598 58.3782 15.0348 56.8361C15.609 58.7966 16.8153 60.9176 19.0976 60.6841C21.3075 60.4554 22.147 58.2468 22.5234 56.2766C23.3533 58.1933 25.6935 59.0203 27.498 57.9306C26.5089 60.9322 25.2689 63.9045 23.995 66.7893L23.9854 66.7844ZM27.3629 47.7536C27.445 49.4319 27.5656 51.1103 27.7152 52.7837C27.8599 54.3745 28.0674 55.8826 27.6476 57.4296C25.7176 58.816 22.9239 57.775 22.6778 55.2356C22.6488 54.9485 22.2676 54.9534 22.2339 55.2356C21.9974 57.2009 21.3509 60.256 18.8418 60.3387C16.3762 60.4214 15.5656 57.5998 15.1796 55.6685C15.1265 55.4107 14.7888 55.508 14.7598 55.7269C14.5668 57.3566 14.2676 59.5603 12.521 60.256C10.7164 60.9711 9.28815 59.5749 8.20733 58.2614C7.46427 55.4739 7.7007 52.4286 7.68622 49.5779C7.6428 41.8235 7.97573 34.0691 7.92748 26.3147C7.94195 26.3147 7.96125 26.3196 7.98055 26.3147C11.3629 25.4001 14.7405 24.8358 18.2532 24.9137C20.0288 24.9526 21.8044 25.1326 23.5511 25.4731C25.1337 25.7796 26.7019 26.2369 27.9709 27.2877C27.223 34.0788 27.0107 40.9284 27.3533 47.7536H27.3629Z" fill="#471E1C"/>
<path id="Vector_9" d="M27.7152 52.7839C27.8599 54.3747 28.0674 55.8828 27.6476 57.4298C25.7176 58.8162 22.9238 57.7751 22.6778 55.2358C22.6488 54.9487 22.2676 54.9536 22.2339 55.2358C21.9974 57.2011 21.3509 60.2562 18.8418 60.3389C16.3762 60.4216 15.5656 57.6 15.1796 55.6687C15.1265 55.4109 14.7887 55.5082 14.7598 55.7271C14.5668 57.3568 14.2676 59.5605 12.521 60.2562C10.7164 60.9713 9.28814 59.5751 8.20732 58.2616C7.46426 55.4741 7.70069 52.4288 7.68621 49.5781C7.64279 41.8237 7.97572 34.0693 7.92747 26.3149C7.94194 26.3149 7.96124 26.3198 7.98054 26.3149C11.3629 25.4003 14.7405 24.836 18.2532 24.9139C20.0288 24.9528 21.8044 25.1328 23.5511 25.4733C25.1337 25.7798 26.7019 26.2371 27.9709 27.2878C27.223 34.079 27.0107 40.9286 27.3533 47.7538C27.4353 49.4321 27.5559 51.1105 27.7055 52.7839H27.7152Z" fill="#F5DD3F"/>
<g id="Vector_10" style="mix-blend-mode:multiply" opacity="0.51">
<path d="M18.1952 68.7889C19.1603 69.2122 19.6717 70.3797 19.4305 71.5229C19.1458 72.8607 18.2339 73.8629 17.5294 74.9817C18.1615 75.5217 18.8611 75.692 19.5318 74.899C20.5113 73.751 21.2447 72.277 21.9588 70.9537C22.0891 70.7105 22.2194 70.4624 22.3448 70.2143C21.1 69.11 19.6621 68.7451 18.1904 68.7889H18.1952Z" fill="#F5DD3F"/>
</g>
<g id="Vector_11" style="mix-blend-mode:multiply" opacity="0.51">
<path d="M31.1603 4.79816C30.9335 1.69932 26.8129 1.2469 24.4968 0.891779C23.4208 0.726378 22.34 0.599894 21.2495 0.512329C23.2085 0.702054 25.1434 1.35393 26.5089 2.8474C28.2073 4.70087 28.0867 7.86781 25.7465 9.14237C23.5656 10.3294 20.9214 9.8283 18.5571 9.90127C15.1941 9.99857 11.5511 10.0521 8.72361 12.1342C8.7043 12.499 8.68983 12.8639 8.67535 13.2336C8.77186 13.1752 8.87801 13.1217 8.98416 13.0731C10.2242 12.5039 11.7055 12.3336 13.0421 12.1439C14.3786 11.9542 15.7248 11.8374 17.071 11.7937C19.5752 11.7207 22.0939 11.9201 24.5596 12.3823C25.5149 12.4893 26.4848 12.679 27.252 13.0147C27.9323 13.2239 28.6078 13.4817 29.2158 13.832C29.3509 12.4066 29.5776 10.9958 29.9202 9.60452C30.1084 8.84562 30.3304 8.09645 30.5813 7.35701C30.8611 6.53487 31.2278 5.68354 31.1603 4.79816Z" fill="#D68321"/>
</g>
<g id="Vector_12" style="mix-blend-mode:multiply" opacity="0.51">
<path d="M30.8466 16.2352C30.4413 15.1649 29.4956 14.4352 28.492 13.9536C28.7236 14.2941 28.8297 14.7028 28.767 15.1941C28.6995 15.7195 28.3472 15.9919 27.8261 15.919C25.8478 15.6368 23.9419 15.2768 21.9395 15.2233C20.0867 15.1747 18.2387 15.2671 16.3906 15.3887C14.7694 15.4957 13.1434 15.5687 11.527 15.7292C10.2001 15.8606 8.73323 16.1233 7.78751 17.1546C7.70066 17.247 7.60898 17.3103 7.51248 17.3443C7.56556 17.5973 7.62828 17.8503 7.70066 18.0935C7.74409 18.0595 7.78751 18.0205 7.83094 17.9913C8.81043 17.3103 10.1373 17.1838 11.2761 16.9795C12.5933 16.746 13.9154 16.566 15.2471 16.4541C17.843 16.2352 20.463 16.279 23.0348 16.6779C23.9033 16.746 24.767 16.8725 25.5921 17.1108C25.732 17.1497 25.872 17.1984 26.0119 17.247C27.4787 17.6168 28.9166 18.1811 29.9443 19.1686C30.036 19.2562 30.1229 19.3535 30.2097 19.4556C31.1458 18.6821 31.2664 17.3346 30.8466 16.2303V16.2352Z" fill="#B5E1E2"/>
</g>
<g id="Vector_13" style="mix-blend-mode:multiply" opacity="0.51">
<path d="M11.1313 12.9223C13.8913 12.3969 16.796 12.2315 19.6283 12.2218C16.9311 12.0855 14.2194 12.2655 11.5656 12.7569C10.7743 12.9028 9.8768 13.0439 9.11926 13.399C9.78513 13.2044 10.4606 13.0439 11.1313 12.9174V12.9223Z" fill="#B5E1E2"/>
</g>
<g id="Vector_14" style="mix-blend-mode:multiply" opacity="0.51">
<path d="M29.8961 19.7621C29.2544 19.0178 28.3665 18.5702 27.4498 18.2346C27.6331 18.4924 27.7537 18.7989 27.7827 19.1637C27.8068 19.4702 27.5366 19.8302 27.2375 19.8886C25.3412 20.2534 23.4063 19.6307 21.5004 19.5383C19.8744 19.4605 18.2483 19.4021 16.6174 19.4216C13.3702 19.4605 9.80924 19.7134 6.96243 21.455C7.04928 21.7858 7.18439 22.102 7.37257 22.3939C7.48837 22.3209 7.609 22.2577 7.73445 22.1896C7.79235 22.1507 7.84542 22.1118 7.90333 22.0728C9.00827 21.382 10.3882 21.202 11.6476 20.9977C13.0517 20.7691 14.4703 20.6085 15.8889 20.5258C18.8225 20.3459 21.7706 20.4821 24.6802 20.9199C26.5668 21.2069 28.9118 21.5766 30.1084 23.2015C30.9431 22.2042 30.7212 20.7204 29.8961 19.7621Z" fill="#B5E1E2"/>
</g>
<g id="Vector_15" style="mix-blend-mode:multiply" opacity="0.51">
<path d="M30.0746 23.9798C29.4908 22.8026 28.2797 22.1847 27.0734 21.8539C26.9817 21.8296 26.8901 21.8053 26.7984 21.781C26.9238 21.8491 27.0493 21.9221 27.1651 22.0048C28.3328 22.8561 27.2375 23.9166 26.2483 24.1793C24.8153 24.5636 23.3195 23.9069 21.8961 23.7804C20.0288 23.615 18.1229 23.649 16.2507 23.7804C14.4944 23.9069 12.7525 24.1696 11.0203 24.4517C9.78028 24.656 8.28933 24.8944 7.41599 25.8917C7.54144 25.989 7.68137 26.0765 7.85024 26.1495C7.85507 26.1495 7.85989 26.1544 7.86472 26.1592C7.87437 26.1301 7.89367 26.1057 7.92744 26.0911C10.9721 24.9917 14.2966 24.4955 17.5487 24.4858C18.6874 24.3885 19.9226 24.369 21.0083 24.6268C23.5945 24.836 26.34 25.3614 28.2845 26.9862C28.3086 27.0106 28.3279 27.03 28.3376 27.0543C29.9974 27.2003 30.7405 25.3225 30.0746 23.9701V23.9798Z" fill="#B5E1E2"/>
</g>
<g id="Vector_16" style="mix-blend-mode:multiply" opacity="0.51">
<path d="M15.1989 57.5757C15.1217 57.4006 15.0541 57.2254 14.9914 57.0454C14.9576 57.2254 14.9142 57.4103 14.8708 57.5903C14.9769 57.566 15.0879 57.5562 15.1989 57.5806V57.5757Z" fill="#FCF8D3"/>
</g>
<g id="Vector_17" style="mix-blend-mode:multiply" opacity="0.51">
<path d="M11.7007 60.7864C12.8008 60.7621 13.6162 60.261 14.0939 59.4146C13.7417 59.9205 13.2785 60.3291 12.6416 60.5724C12.106 60.7767 11.5849 60.801 11.0879 60.7037C11.2809 60.7621 11.4835 60.7913 11.7007 60.7864Z" fill="#FCF8D3"/>
</g>
<g id="Vector_18" style="mix-blend-mode:multiply" opacity="0.51">
<path d="M23.5028 57.5952C23.3967 59.0692 22.919 60.5481 22.6102 61.9832C22.3448 63.2237 22.0264 64.5469 21.2833 65.5928C20.4727 66.7311 19.3822 67.1009 18.0457 67.2128C16.4148 67.3538 14.6729 67.2955 13.4763 68.5992C13.4425 68.6333 13.4087 68.6673 13.375 68.6916C13.5535 68.9981 13.7369 69.3046 13.9202 69.6111C14.229 69.4408 14.5475 69.29 14.8707 69.1489C14.9045 69.1246 14.9431 69.1003 14.9769 69.0759C15.112 68.9884 15.2423 68.9543 15.3629 68.9543C17.7706 68.0592 20.5354 68.0446 22.5668 69.7959C23.0686 68.8084 23.5414 67.8014 23.9902 66.7847C25.264 63.8999 26.5089 60.9275 27.4932 57.926C26.1904 58.7141 24.603 58.4951 23.5077 57.5903L23.5028 57.5952Z" fill="#FCF8D3"/>
</g>
<g id="Vector_19" style="mix-blend-mode:multiply" opacity="0.51">
<path d="M8.70428 26.1252C8.73324 26.1252 8.76219 26.1203 8.79596 26.1252C9.86231 26.1787 10.9094 25.7165 11.9419 25.4295C10.8611 25.6192 9.7851 25.8576 8.70911 26.13L8.70428 26.1252Z" fill="#F5DD3F"/>
</g>
<g id="Vector_20" style="mix-blend-mode:multiply" opacity="0.51">
<path d="M8.88284 58.8405C9.11444 59.1129 9.35569 59.4097 9.61625 59.687C10.451 60.334 11.416 60.6988 12.5258 60.2562C13.4088 59.9059 13.9202 59.1665 14.2387 58.3103C14.2387 58.1789 14.2869 58.0524 14.3641 57.9357C14.5427 57.3422 14.644 56.7098 14.7164 56.1309C14.6778 55.9849 14.6392 55.8341 14.6006 55.6882C14.1663 56.8898 13.6452 58.0573 12.5933 58.7919C11.4015 59.6237 10.0167 59.4632 8.84906 58.8065C8.85871 58.8162 8.87319 58.8308 8.88284 58.8405Z" fill="#F5DD3F"/>
</g>
<g id="Vector_21" style="mix-blend-mode:multiply" opacity="0.51">
<path d="M27.3629 47.7538C27.0203 40.9286 27.2326 34.079 27.9805 27.2878C26.7598 26.2711 25.2495 25.8138 23.7248 25.5074C23.7441 25.5852 23.7538 25.6728 23.7393 25.7701C23.5849 27.0106 23.6235 28.2705 23.5222 29.5159C23.5077 29.7154 23.4257 29.871 23.3098 29.9878C23.2905 30.2164 23.2712 30.4402 23.2519 30.6591C23.0734 32.6196 22.7887 34.5606 22.644 36.526C22.3304 40.7145 22.2097 44.9177 22.065 49.1159C22.0119 50.5997 21.9974 52.0834 21.9685 53.5672C21.9395 54.832 21.8382 56.1406 21.3364 57.313C20.6609 58.8989 18.755 60.2416 17.1289 59.6724C17.2351 59.7989 17.3509 59.9156 17.4667 60.0178C17.8575 60.2318 18.3111 60.3535 18.8418 60.334C21.3509 60.2513 21.9974 57.1962 22.2339 55.2309C22.2676 54.9487 22.6488 54.9439 22.6778 55.2309C22.7308 55.7757 22.8997 56.2525 23.1554 56.6465C23.3243 56.739 23.4594 56.8946 23.5077 57.0941C24.5354 58.1741 26.3014 58.393 27.6476 57.4249C28.0722 55.8779 27.8599 54.3698 27.7152 52.7791C27.5656 51.1056 27.4449 49.4273 27.3629 47.7489V47.7538Z" fill="#F5DD3F"/>
</g>
</g>
<g id="Vector_22" style="mix-blend-mode:soft-light" opacity="0.66">
<path d="M10.2531 27.9981C10.065 27.5165 9.43287 27.3706 9.13854 27.8522C8.58848 28.7473 8.73805 30.1775 8.6705 31.2088C8.59813 32.3374 8.54023 33.4709 8.4968 34.5996C8.4003 37.0319 8.41477 39.4643 8.45337 41.8967C8.49198 44.2755 8.68015 46.6495 8.83456 49.0284C8.98413 51.3586 9.13371 53.7034 9.57762 55.9995C9.59692 56.1066 9.75615 56.0774 9.76097 55.9752C9.8044 53.6012 9.6307 51.2321 9.58727 48.8581C9.54385 46.5376 9.62587 44.2171 9.6693 41.8967C9.71272 39.5762 9.83817 37.2557 9.9588 34.9352C10.0167 33.8066 10.0891 32.6731 10.1663 31.5445C10.2097 30.9218 10.2531 30.304 10.3014 29.6813C10.3496 29.0975 10.4751 28.5478 10.2531 27.9932V27.9981Z" fill="white"/>
</g>
<g id="Vector_23" style="mix-blend-mode:soft-light" opacity="0.66">
<path d="M12.9021 1.62638C10.8466 3.71821 9.54867 6.72948 9.843 9.69697C9.85748 9.82832 10.0601 9.88183 10.0891 9.73103C10.6247 6.95326 11.7537 4.5063 13.8237 2.55554C14.4365 1.97664 13.4956 1.02315 12.9021 1.62638Z" fill="white"/>
</g>
</g>
<g id="Group_5">
<g id="Group_6">
<path id="Vector_24" d="M15.4208 32.6731C15.3581 32.4493 15.2471 32.2547 15.0831 32.0942C14.9962 32.0261 14.9046 31.958 14.8177 31.8899C14.6151 31.7731 14.3931 31.7099 14.1567 31.7099C13.9781 31.705 13.8093 31.7391 13.6549 31.8218C13.4908 31.8753 13.3509 31.9677 13.2351 32.0942C13.1096 32.2158 13.018 32.3569 12.9649 32.5174C12.8829 32.6731 12.8442 32.8434 12.8539 33.0234C12.8684 33.1401 12.8829 33.2569 12.9022 33.3736C12.9649 33.5974 13.0759 33.792 13.2399 33.9525C13.3268 34.0206 13.4184 34.0888 13.5053 34.1569C13.7079 34.2736 13.9299 34.3369 14.1663 34.3369C14.3449 34.3417 14.5137 34.3077 14.6681 34.225C14.8322 34.1715 14.9721 34.079 15.0879 33.9525C15.2134 33.8309 15.305 33.6898 15.3581 33.5293C15.4401 33.3736 15.4788 33.2034 15.4691 33.0234C15.4546 32.9066 15.4401 32.7899 15.4208 32.6731Z" fill="#471E1C"/>
<path id="Vector_25" d="M22.147 32.6731C22.0843 32.4493 21.9733 32.2547 21.8093 32.0942C21.7224 32.0261 21.6307 31.958 21.5439 31.8899C21.3412 31.7731 21.1193 31.7099 20.8828 31.7099C20.7043 31.705 20.5354 31.7391 20.381 31.8218C20.217 31.8753 20.077 31.9677 19.9612 32.0942C19.8358 32.2158 19.7441 32.3569 19.691 32.5174C19.609 32.6731 19.5704 32.8434 19.5801 33.0234C19.5945 33.1401 19.609 33.2569 19.6283 33.3736C19.691 33.5974 19.802 33.792 19.9661 33.9525C20.0529 34.0206 20.1446 34.0888 20.2315 34.1569C20.4341 34.2736 20.6561 34.3369 20.8925 34.3369C21.071 34.3417 21.2399 34.3077 21.3943 34.225C21.5584 34.1715 21.6983 34.079 21.8141 33.9525C21.9395 33.8309 22.0312 33.6898 22.0843 33.5293C22.1663 33.3736 22.2049 33.2034 22.1953 33.0234C22.1808 32.9066 22.1663 32.7899 22.147 32.6731Z" fill="#471E1C"/>
</g>
<g id="Group_7">
<path id="Vector_26" d="M10.4269 33.8698C8.25075 33.8698 8.24592 37.2849 10.4269 37.2849C12.6078 37.2849 12.6078 33.8698 10.4269 33.8698Z" fill="#E9B9AB"/>
<path id="Vector_27" d="M23.5077 34.6336C21.3316 34.6336 21.3267 38.0486 23.5077 38.0486C25.6886 38.0486 25.6886 34.6336 23.5077 34.6336Z" fill="#E9B9AB"/>
</g>
<path id="Vector_28" d="M23.7779 38.5351C22.9962 38.4475 22.3159 38.1459 21.79 37.5476C21.6114 37.3432 21.3123 37.6449 21.4908 37.8492C21.8382 38.2335 22.2869 38.5108 22.7743 38.6275C22.7598 38.6519 22.7453 38.6762 22.7405 38.7102C22.1277 41.3177 19.8599 43.3171 17.1434 43.2296C15.7972 43.1858 14.4606 42.6604 13.4667 41.741C12.3231 40.6853 11.884 39.3037 11.3726 37.8832C11.6862 37.7713 11.9661 37.6011 12.1639 37.4016C12.3569 37.2022 12.0481 36.8957 11.8647 37.1C11.5994 37.3968 11.252 37.6157 10.8611 37.6984C10.4269 37.7908 10.0843 37.6449 9.67415 37.5573C9.65003 37.5524 9.63073 37.5816 9.65003 37.6011C9.97331 37.9854 10.4848 38.0729 10.9866 37.9902C11.5994 41.055 13.9395 43.5944 17.153 43.6966C20.024 43.7842 22.5957 41.6437 23.1844 38.8367C23.1941 38.7832 23.1892 38.7346 23.1699 38.6956C23.3774 38.7102 23.5897 38.6956 23.7972 38.6421C23.8551 38.6275 23.8358 38.5497 23.7827 38.5448L23.7779 38.5351Z" fill="#471E1C"/>
<g id="Group_8">
<path id="Vector_29" d="M13.8913 30.0461C13.6018 29.8272 13.0758 30.0656 12.8394 30.2699C12.6319 30.445 12.3376 30.8683 12.4872 31.1504C12.5016 31.1748 12.5306 31.1748 12.5499 31.1602C12.6464 31.0775 12.6898 30.9461 12.7719 30.8488C12.8587 30.7467 12.9649 30.6591 13.0758 30.5861C13.1916 30.5132 13.3074 30.4596 13.4425 30.4353C13.5776 30.4061 13.7176 30.4402 13.8479 30.3915C14.0023 30.3283 14.0216 30.1483 13.8913 30.051V30.0461Z" fill="#471E1C"/>
<path id="Vector_30" d="M22.3304 27.1078C22.0409 27.0641 21.9202 27.5116 22.2097 27.5505C22.4896 27.5894 22.7309 27.6916 22.9576 27.857C23.1796 28.0224 23.3292 28.2316 23.5125 28.4359C23.5608 28.4894 23.6428 28.4456 23.6476 28.3824C23.6766 27.6916 22.9335 27.2003 22.3352 27.1127L22.3304 27.1078Z" fill="#471E1C"/>
</g>
</g>
</g>
</g>
</g>
</svg>
